<svg xmlns="http://www.w3.org/2000/svg" width="859.584" height="221.402" viewBox="0 0 859.584 221.402"><linearGradient id="a" gradientUnits="userSpaceOnUse" y1="111.701" x2="859.584" y2="111.701" gradientTransform="matrix(1 0 0 -1 0 222.402)"><stop offset="0" stop-color="#ffdcff"/><stop offset="1" stop-color="#cdffff"/></linearGradient><path fill="none" stroke="url(#a)" stroke-width="4" d="M91.766 2S2 2 2 91.766v37.87s0 89.766 89.766 89.766h676.052s89.766 0 89.766-89.766v-37.87S857.584 2 767.818 2H91.766z"/><path fill="none" d="M189.804 35.3H669.78v53.998H189.804z"/><text transform="translate(189.804 85.7)" fill="#FFF" font-family="'DecimaMono-Light'" font-size="72">New Entries</text><path fill="#FFF" d="M480.4 132.15l-58.107 58.11-58.107-58.11a6.153 6.153 0 0 0-8.697 0 6.145 6.145 0 0 0 0 8.695l62.453 62.453c1.203 1.207 2.776 1.807 4.35 1.807s3.15-.6 4.352-1.803L489.1 140.85a6.15 6.15 0 0 0 0-8.696 6.154 6.154 0 0 0-8.7-.004z"/></svg>