<svg xmlns="http://www.w3.org/2000/svg" width="859.584" height="221.402" viewBox="0 0 859.584 221.402"><linearGradient id="a" gradientUnits="userSpaceOnUse" x1="-36" y1="165.701" x2="823.584" y2="165.701" gradientTransform="matrix(1 0 0 -1 36 276.402)"><stop offset="0" stop-color="#ffdcff"/><stop offset="1" stop-color="#cdffff"/></linearGradient><path fill="none" stroke="url(#a)" stroke-width="4" d="M91.766 2S2 2 2 91.767v37.87s0 89.766 89.766 89.766h676.052s89.766 0 89.766-89.767v-37.87S857.584 2 767.818 2H91.766z"/><path fill="none" d="M189.804 35.302H669.78V89.3H189.804z"/><path fill="#FFF" d="M487.9 75.124l-58.108 58.11-58.107-58.11a6.152 6.152 0 0 0-8.698 0 6.144 6.144 0 0 0 0 8.694l62.455 62.455c1.203 1.205 2.776 1.807 4.35 1.807s3.15-.602 4.352-1.803L496.6 83.82a6.15 6.15 0 0 0-8.7-8.697z"/></svg>